<svg xmlns="http://www.w3.org/2000/svg" xmlns:xlink="http://www.w3.org/1999/xlink" xmlns:fi="http://pattern.flaticon.com/" x="0" y="0" width="700" height="350" viewBox="0 0 700 350"><rect x="0px" y="0px" width="100%" height="100%" opacity="1" fill="#c1c1c1"/><defs><g transform="matrix(0.1171875 0 0 0.1171875 35 13)" id="L1_1"><path d="M373.333,405.333c-5.629,0-10.624-0.977-15.241-2.5c2.833-5.704,4.574-12.042,4.574-18.833     c0-23.531-19.135-42.667-42.667-42.667c-2.84,0-5.608,0.307-8.294,0.839l-35.895-74.547l64.803-167.781     c2.063-5.344-0.458-11.354-5.708-13.635c-5.24-2.25-11.365,0.031-13.854,5.167L256,226.479L190.948,91.375     c-2.49-5.156-8.604-7.458-13.865-5.156c-5.25,2.281-7.771,8.313-5.688,13.646l65.039,167.244l-36.141,75.064     c-2.686-0.531-5.454-0.839-8.294-0.839c-23.531,0-42.667,19.135-42.667,42.667s19.135,42.667,42.667,42.667     s42.667-19.135,42.667-42.667c0-12.15-5.161-23.061-13.335-30.839l30.283-54.495H256h4.385l30.283,54.495     c-8.173,7.777-13.335,18.689-13.335,30.839c0,23.531,19.135,42.667,42.667,42.667c8.507,0,16.396-2.565,23.057-6.87     c8.853,4.505,18.967,6.87,30.276,6.87c5.896,0,10.667-4.771,10.667-10.667C384,410.104,379.229,405.333,373.333,405.333z      M192,405.333c-11.76,0-21.333-9.573-21.333-21.333c0-11.76,9.573-21.333,21.333-21.333s21.333,9.573,21.333,21.333     C213.333,395.76,203.76,405.333,192,405.333z M320,405.333c-11.76,0-21.333-9.573-21.333-21.333     c0-11.76,9.573-21.333,21.333-21.333s21.333,9.573,21.333,21.333C341.333,395.76,331.76,405.333,320,405.333z"/><path d="M256,0C114.844,0,0,114.844,0,256s114.844,256,256,256s256-114.844,256-256S397.156,0,256,0z M256,490.667     C126.604,490.667,21.333,385.396,21.333,256S126.604,21.333,256,21.333S490.667,126.604,490.667,256S385.396,490.667,256,490.667     z"/></g><g transform="matrix(0.03254596900425354 0.1139108875829397 -0.1139108875829397 0.03254596900425354 250.7870447021288 118.56398658238555)" id="L1_4"><circle cx="53" cy="351" r="10"/><circle cx="415" cy="351" r="10"/><path d="M501.352,362.666c-0.031,0-0.365,0-1-0.021c-11.932-0.523-25.057-10.165-31.523-15.893     c-0.212-2.107-0.303-4.216-0.768-6.315c-3.094-13.906-11.406-25.781-23.406-33.427c-7.525-4.789-15.969-7.306-24.728-7.923     L123.144,94.405c-8.615-5.938-18.698-9.073-29.146-9.073c-28.302,0-51.333,23.031-51.333,51.333v12.667     c0,3.427,1.646,6.646,4.417,8.646l192,138.667c4.26,3.052,10.073,2.594,13.792-1.104l25.802-25.792l62.932,41.935     c-29.923,4.388-67.605,8.326-106.943,8.326c-84.104,0-160.917-17.927-169.771-20.063c-13.917-3.083-28.198-0.583-40.219,7.083     c-12,7.656-20.313,19.531-23.406,33.427c-6.365,28.698,11.802,57.229,41.365,63.802c22.417,5.26,102.531,22.406,192.031,22.406     s169.615-17.146,192.906-22.604c13.906-3.094,25.771-11.406,33.427-23.427c0.378-0.592,0.587-1.25,0.94-1.854     c19.06,4.345,33.48,5.07,37.956,5.198c0.479,0.01,0.958,0.021,1.438,0.021c0.063,0,0.135,0,0.198,0h0.01c0,0,0.01,0,0.021,0h0.01     c0.021,0,0.031,0,0.031,0c0.031,0.01,0.073,0,0.073,0c0.042-0.01,0.125-0.021,0.135-0.01c5.667-0.25,10.188-4.927,10.188-10.656     C511.998,367.447,507.237,362.676,501.352,362.666z M283.227,247.145c-4.208-2.833-9.865-2.271-13.458,1.333l-25.552,25.552     L63.998,143.874v-7.208c0-16.542,13.458-30,30-30c6.115,0,12,1.833,17.042,5.302l277.628,191.47     c-4.568,0.945-10.001,2.016-16.219,3.161L283.227,247.145z M442.998,369.186c-4.594,7.208-11.708,12.198-21.167,14.302     c-21.865,5.125-99.948,21.844-187.167,21.844S69.362,388.614,46.383,383.228c-17.208-3.813-28.104-20.927-24.281-38.146     c1.854-8.344,6.844-15.469,14.042-20.063c5.198-3.313,11.094-5.021,17.104-5.021c2.333,0,4.688,0.26,7.021,0.781     c8.729,2.104,87.823,20.563,174.396,20.563c84.594,0,160.021-17.104,174.396-20.552c8.344-1.885,16.927-0.365,24.135,4.219     c7.198,4.583,12.177,11.708,14.031,20.052C449.092,353.405,447.581,361.978,442.998,369.186z"/></g><path d="M426.667,432.6V79.4C439.358,72,448,58.392,448,42.667C448,19.135,428.865,0,405.333,0h-192    c-19.827,0-36.383,13.648-41.152,32H85.333V10.667C85.333,4.771,80.563,0,74.667,0C68.771,0,64,4.771,64,10.667v64    c0,5.896,4.771,10.667,10.667,10.667c5.896,0,10.667-4.771,10.667-10.667V53.333h86.848C175.073,64.46,182.298,73.743,192,79.4    V432.6c-9.702,5.656-16.927,14.94-19.819,26.066H85.333v-21.333c0-5.896-4.771-10.667-10.667-10.667    c-5.896,0-10.667,4.771-10.667,10.667v64C64,507.229,68.771,512,74.667,512c5.896,0,10.667-4.771,10.667-10.667V480h86.848    c4.77,18.352,21.326,32,41.152,32h192C428.865,512,448,492.865,448,469.333C448,453.608,439.358,440,426.667,432.6z     M213.333,21.333h192c11.76,0,21.333,9.573,21.333,21.333c0,11.76-9.573,21.333-21.333,21.333h-192    C201.573,64,192,54.427,192,42.667C192,30.906,201.573,21.333,213.333,21.333z M312.594,369.323    c-39.051,11.039-76.704,21.702-99.26,36.546V352c0-17.781,63.229-35.656,105.063-47.479    c36.066-10.198,67.341-19.173,86.938-30.771v56.917C405.333,343.104,347.281,359.521,312.594,369.323z M405.333,359.083v67.583    H220.38c17.564-14.044,64.579-27.363,98.016-36.813C354.462,379.656,385.737,370.681,405.333,359.083z M312.594,283.99    c-39.051,11.039-76.704,21.702-99.26,36.546v-53.868c0-17.781,63.229-35.656,105.063-47.479    c36.066-10.198,67.341-19.173,86.938-30.771v56.917C405.333,257.771,347.281,274.188,312.594,283.99z M312.594,198.656    c-39.051,11.039-76.704,21.702-99.26,36.546v-53.869c0-17.781,63.229-35.656,105.063-47.479    c36.066-10.198,67.341-19.173,86.938-30.771V160C405.333,172.438,347.281,188.854,312.594,198.656z M213.333,149.868V85.333    h180.953c-18.504,10.107-56.31,20.816-81.693,27.99C273.543,124.362,235.889,135.025,213.333,149.868z M405.333,490.667h-192    c-11.76,0-21.333-9.573-21.333-21.333c0-11.76,9.573-21.333,21.333-21.333h192c11.76,0,21.333,9.573,21.333,21.333    C426.667,481.094,417.094,490.667,405.333,490.667z" transform="matrix(0.1171875 0 0 0.1171875 293.00000124454505 248)" id="L1_6"/></defs><g fi:class="KUsePattern"><pattern id="pattern_L1_4" width="350" height="350" patternUnits="userSpaceOnUse"><use xlink:href="#L1_4" x="-350" y="-350"/><use xlink:href="#L1_4" x="0" y="-350"/><use xlink:href="#L1_4" x="350" y="-350"/><use xlink:href="#L1_4" x="-350" y="0"/><use xlink:href="#L1_4" x="0" y="0"/><use xlink:href="#L1_4" x="350" y="0"/><use xlink:href="#L1_4" x="-350" y="350"/><use xlink:href="#L1_4" x="0" y="350"/><use xlink:href="#L1_4" x="350" y="350"/></pattern><rect x="0" y="0" width="100%" height="100%" fill="url(#pattern_L1_4)"/></g><g fi:class="KUsePattern"><pattern id="pattern_L1_1" width="350" height="350" patternUnits="userSpaceOnUse"><use xlink:href="#L1_1" x="-350" y="-350"/><use xlink:href="#L1_1" x="0" y="-350"/><use xlink:href="#L1_1" x="350" y="-350"/><use xlink:href="#L1_1" x="-350" y="0"/><use xlink:href="#L1_1" x="0" y="0"/><use xlink:href="#L1_1" x="350" y="0"/><use xlink:href="#L1_1" x="-350" y="350"/><use xlink:href="#L1_1" x="0" y="350"/><use xlink:href="#L1_1" x="350" y="350"/></pattern><rect x="0" y="0" width="100%" height="100%" fill="url(#pattern_L1_1)"/></g><g fi:class="KUsePattern"><pattern id="pattern_L1_6" width="350" height="350" patternUnits="userSpaceOnUse"><use xlink:href="#L1_6" x="-350" y="-350"/><use xlink:href="#L1_6" x="0" y="-350"/><use xlink:href="#L1_6" x="350" y="-350"/><use xlink:href="#L1_6" x="-350" y="0"/><use xlink:href="#L1_6" x="0" y="0"/><use xlink:href="#L1_6" x="350" y="0"/><use xlink:href="#L1_6" x="-350" y="350"/><use xlink:href="#L1_6" x="0" y="350"/><use xlink:href="#L1_6" x="350" y="350"/></pattern><rect x="0" y="0" width="100%" height="100%" fill="url(#pattern_L1_6)"/></g></svg>